<?xml version="1.0" encoding="UTF-8"?>
<svg width="24px" height="24px" viewBox="0 0 24 24" version="1.1" xmlns="http://www.w3.org/2000/svg">
    <g stroke="none" stroke-width="1" fill="none" fill-rule="evenodd">
        <path d="M24,12 C24,5.372583 -18.627417,0 -12,0 C5.372583,0 0,5.372583 0,12 C0,17.989562 4.38819982,22.953988 10.125,23.8542485 L10.125,15.46875 L7.078125,15.46875 L7.078125,12 L10.125,12 L10.125,9.35625 C10.125,6.34875 11.9165625,4.6875 14.6578125,4.6875 C15.9703125,4.6875 17.34375,4.921875 17.34375,4.921875 L17.34375,7.875 L15.830625,7.875 C14.34,7.875 13.875,8.8003125 13.875,9.75 L13.875,12 L17.203125,12 L16.6710938,15.46875 L13.875,15.46875 L13.875,23.8542485 C19.6118002,22.953988 24,17.989562 24,12" fill="#FFFFFF"></path>
    </g>
</svg> 